PathFileType	4	(X/Y/Z)	Run_500 02
DataRate	CameraRate	NumFrames	NumMarkers	Units	OrigDataRate	OrigDataStartFrame	OrigNumFrames
120	120	6	42	mm	120	287	128
Frame#	Time	LASI			RASI			LPSI			RPSI			RTH1			RTH2			RTH3			LTH1			LTH2			LTH3			RTB1			RTB2			LTB1			LTB2			LTB3			RCAL			RTOE			RMT5			LCAL			LTOE			LMT5			LACR			RACR			CLAV			C7			RUA1			RUA2			RUA3			RLEL			RMEL			LUA1			LUA2			LUA3			LLEL			LMEL			RFAsuperior			RFAradius			RFAulna			LFAsuperior			LFAradius			LFAulna			RTB3		
		X1	Y1	Z1	X2	Y2	Z2	X3	Y3	Z3	X4	Y4	Z4	X5	Y5	Z5	X6	Y6	Z6	X7	Y7	Z7	X8	Y8	Z8	X9	Y9	Z9	X10	Y10	Z10	X11	Y11	Z11	X12	Y12	Z12	X13	Y13	Z13	X14	Y14	Z14	X15	Y15	Z15	X16	Y16	Z16	X17	Y17	Z17	X18	Y18	Z18	X19	Y19	Z19	X20	Y20	Z20	X21	Y21	Z21	X22	Y22	Z22	X23	Y23	Z23	X24	Y24	Z24	X25	Y25	Z25	X26	Y26	Z26	X27	Y27	Z27	X28	Y28	Z28	X29	Y29	Z29	X30	Y30	Z30	X31	Y31	Z31	X32	Y32	Z32	X33	Y33	Z33	X34	Y34	Z34	X35	Y35	Z35	X36	Y36	Z36	X37	Y37	Z37	X38	Y38	Z38	X39	Y39	Z39	X40	Y40	Z40	X41	Y41	Z41	X42	Y42	Z42	

287	  2.391667	938.002488	1080.618027	-756.088844	929.703682	1057.428309	-505.347983	762.974455	1122.093705	-681.936158	759.558972	1117.606938	-597.838814	786.804689	917.040279	-457.079609	770.993942	801.013815	-473.359751	647.896550	748.220540	-516.959996	955.764992	897.543160	-805.120832	1082.149000	844.224026	-793.284506	1096.702093	718.375022	-764.610352	503.052709	474.070435	-605.795674	434.256016	450.105361	-542.008086	1207.743560	521.283291	-700.345011	1170.793927	435.641069	-754.721261	1171.888045	320.693214	-687.678603	199.712383	374.579784	-635.421596	266.634038	150.472660	-660.492409	202.853068	193.148106	-577.591581	1050.566951	184.521416	-672.668142	1285.404705	169.825139	-661.606435	1216.094759	140.100524	-747.423011	908.914598	1555.352565	-806.699891	980.708031	1562.929248	-492.420476	999.137117	1496.196951	-627.715616	867.786764	1577.063940	-624.680345	993.427732	1472.389207	-409.334525	1014.953635	1384.605948	-410.396210	959.498241	1369.606173	-354.880778	990.115608	1236.405503	-305.270743	929.685587	1209.610195	-362.831730	843.894668	1515.212918	-876.487342	824.065444	1450.851374	-893.093350	737.714867	1482.518627	-852.736550	634.980656	1365.353535	-936.346765	607.010639	1366.628332	-856.927799	1061.538378	1289.630668	-371.239478	1094.204545	1376.874209	-522.522382	1150.918083	1334.537546	-497.295322	715.760059	1314.408291	-924.045846	854.364076	1246.697126	-826.072178	828.335024	1188.294340	-858.887269	370.176394	376.039550	-614.232523	
288	  2.400000	937.757632	1080.139325	-758.643829	931.753724	1059.758786	-505.283736	763.136108	1121.670780	-681.062061	761.115168	1119.132689	-596.902660	790.399122	918.315359	-457.462532	774.900363	801.250161	-474.455008	652.020726	748.896493	-515.418558	952.189575	891.101855	-804.003365	1078.595539	836.988540	-794.144582	1091.113508	711.059990	-765.810798	498.417579	481.527328	-606.398276	427.564196	462.634804	-542.948967	1209.935215	514.783027	-700.247202	1182.087511	425.483407	-754.180672	1194.614396	311.603102	-686.711935	186.385776	406.596962	-635.934384	239.737726	180.013291	-665.184103	178.355106	224.558960	-581.668442	1088.269097	163.276792	-673.391729	1322.482485	176.246545	-653.913479	1260.704420	136.103812	-740.724275	908.538665	1555.273806	-808.160963	981.944719	1564.755580	-493.443924	999.676291	1497.660100	-628.884675	868.467798	1578.496418	-625.140607	994.516400	1474.623405	-409.994700	1016.198099	1386.682205	-410.470915	960.881793	1372.438183	-354.894719	990.437020	1239.203866	-304.609385	927.891338	1213.208741	-360.533282	842.754078	1515.540220	-876.058302	822.763734	1451.901708	-893.058324	736.595501	1482.443855	-851.146234	633.351096	1365.417453	-934.946200	606.361860	1366.363434	-855.541252	1060.809551	1291.362916	-372.546211	1089.418094	1378.452275	-524.796543	1146.612303	1335.768527	-501.147787	714.475093	1315.563094	-922.997034	854.994720	1249.231993	-826.025346	829.139064	1190.358063	-858.341507	359.616513	396.765598	-615.478172	
289	  2.408333	937.418322	1079.505321	-760.347825	933.760520	1061.817743	-505.073561	762.945398	1120.416083	-680.493056	762.400082	1119.716913	-596.220810	794.732351	917.960825	-458.110251	779.876456	800.093838	-476.141233	657.419468	747.413385	-513.898129	949.548044	886.230257	-804.759540	1075.009931	829.153789	-794.949795	1083.536316	702.424529	-766.861014	496.062683	488.285197	-606.870649	423.375929	475.080122	-543.803389	1209.942327	507.080339	-700.070585	1190.715022	415.569629	-753.328978	1213.855654	303.691200	-685.270744	177.644724	440.604252	-635.798863	215.034436	211.624618	-669.707986	156.264663	258.452688	-585.664310	1123.023952	145.567189	-673.170911	1353.193872	185.525669	-647.255710	1299.757245	135.947030	-734.229816	908.549287	1554.419609	-809.741562	983.204325	1565.721519	-494.152616	1000.096146	1498.760240	-629.879944	869.310081	1579.520340	-625.868122	995.440689	1475.469595	-410.414749	1016.863067	1387.542296	-409.986665	961.102952	1374.241087	-354.693371	989.076343	1241.060742	-303.659502	924.751441	1216.038065	-358.268369	842.329519	1514.166551	-876.191782	822.365060	1451.167900	-893.251351	736.077145	1480.709126	-850.352635	633.141387	1363.292775	-934.366285	606.803534	1363.804477	-855.036172	1059.433024	1290.995905	-373.282375	1085.585958	1376.941628	-526.760462	1142.853856	1333.807849	-503.947381	714.778853	1314.748307	-922.441627	856.856240	1250.071778	-825.979449	831.539544	1190.663463	-858.108795	352.178324	417.486616	-616.457430	
290	  2.416667	936.985301	1079.013901	-760.724689	935.811670	1063.385818	-504.543349	762.601580	1118.727652	-679.878524	763.465733	1119.499130	-595.477983	799.678165	916.101103	-458.803224	785.540506	797.879676	-477.972209	663.639254	744.493370	-512.995446	947.847997	883.150855	-807.292070	1071.015267	820.683753	-795.767680	1074.275630	692.900734	-767.022922	496.035448	494.535038	-607.557673	422.182755	487.298226	-544.701430	1208.119029	499.033054	-699.459514	1196.743342	406.724240	-752.271825	1229.021253	297.521973	-683.357328	173.597483	476.004781	-635.065294	193.779768	245.243237	-673.293918	138.203432	294.704160	-588.633358	1152.978543	132.130682	-672.120296	1376.886395	195.994422	-641.747751	1331.637335	138.564988	-728.495104	908.887290	1552.881569	-811.278622	984.412500	1565.807636	-494.672554	1000.367934	1499.224953	-630.628813	870.299732	1580.079231	-626.978352	996.153372	1475.070779	-410.673016	1016.762237	1387.409454	-408.975531	960.200983	1375.225533	-354.177772	985.932666	1242.067933	-302.456287	920.265397	1218.179251	-356.193311	842.541855	1511.365048	-876.961144	822.891328	1448.678033	-893.695461	736.254120	1477.404769	-850.507239	634.394521	1359.033888	-934.627171	608.417460	1359.050817	-855.407249	1057.162600	1288.745105	-373.461597	1082.772807	1372.533526	-528.439876	1139.648455	1328.857078	-505.554351	716.735968	1312.041666	-922.520241	859.944932	1249.141266	-826.001657	835.524535	1189.222846	-858.288631	347.876536	437.791767	-617.394861	
291	  2.425000	936.448557	1078.695032	-759.876656	937.892535	1064.221079	-503.720432	762.228726	1116.931878	-678.942311	764.311094	1118.616278	-594.488727	805.015901	913.081679	-459.413121	791.569661	794.906102	-479.540292	670.447720	740.484644	-512.924265	946.534466	880.858265	-810.868591	1066.338913	811.438881	-796.743548	1064.329400	683.232745	-766.384186	498.394678	500.192272	-608.566304	424.174380	499.067622	-545.617885	1204.887940	491.536321	-698.464752	1200.108100	399.409303	-751.165999	1239.842067	293.249978	-681.316360	174.124863	511.953736	-633.876057	176.881553	280.648430	-675.606184	125.357105	332.797502	-590.051705	1176.458799	122.920509	-670.238208	1393.759981	205.357461	-637.439987	1355.256028	142.121423	-723.817136	909.478947	1550.668741	-812.682229	985.539566	1564.947106	-495.140142	1000.489290	1498.758956	-631.123521	871.379380	1580.037878	-628.464038	996.466121	1473.702915	-410.803703	1015.764104	1386.494110	-407.595292	958.274325	1375.518328	-353.427316	981.053996	1242.300900	-301.026198	914.452423	1219.708525	-354.332797	843.319251	1507.467622	-878.264906	824.290020	1444.686432	-894.385047	737.138022	1472.631113	-851.652434	637.105215	1352.765051	-935.734832	611.240311	1352.236843	-856.670957	1053.770782	1284.982765	-373.076164	1080.905457	1365.488406	-529.749935	1136.851222	1321.141105	-505.887865	720.322007	1307.490451	-923.312747	864.201966	1246.459129	-826.129786	841.018975	1186.119316	-858.907093	346.618821	457.522362	-618.369437	
292	  2.433333	935.790561	1078.396916	-758.301994	939.893261	1064.152695	-502.889379	761.882637	1115.200533	-677.628356	764.925072	1117.128163	-593.252786	810.438571	909.336716	-459.958399	797.753474	791.316174	-480.605337	677.823101	735.385206	-513.460096	944.847733	878.000753	-814.543534	1061.136516	801.540568	-798.076565	1055.035323	674.263996	-765.619018	503.177444	505.006486	-609.697054	429.302597	510.128059	-546.376997	1200.689326	485.135948	-697.515555	1200.636011	393.420336	-750.077854	1246.326482	290.369568	-679.533122	179.586425	547.394384	-632.292719	164.673891	317.184039	-676.643653	118.166249	371.900030	-589.895875	1192.338718	116.898461	-667.296384	1404.466671	211.619160	-634.417977	1370.248741	144.593223	-720.186754	910.283717	1547.702287	-813.941189	986.591804	1563.065949	-495.646164	1000.520760	1497.146573	-631.428047	872.461380	1579.212348	-630.199516	996.163145	1471.653104	-410.822689	1013.807343	1384.870319	-406.082982	955.378038	1375.161214	-352.626397	974.622287	1241.811438	-299.398852	907.453559	1220.648015	-352.652744	844.637847	1502.693395	-879.888708	826.469877	1439.540368	-895.304461	738.675689	1466.473643	-853.702150	641.231446	1344.636652	-937.682726	615.192646	1343.516139	-858.828385	1049.169119	1280.080654	-372.098708	1079.802318	1356.107508	-530.512140	1134.232122	1310.882653	-504.934417	725.445503	1301.096893	-924.831503	869.538855	1242.140179	-826.372325	847.898621	1181.481726	-859.908237	348.310558	476.568371	-619.256645	
